<svg xmlns="http://www.w3.org/2000/svg" xmlns:xlink="http://www.w3.org/1999/xlink" width="500" zoomAndPan="magnify" viewBox="0 0 375 374.999991" height="500" preserveAspectRatio="xMidYMid meet" version="1.0"><defs><g/><clipPath id="c034069a28"><path d="M 152 145 L 266 145 L 266 271 L 152 271 Z M 152 145 " clip-rule="nonzero"/></clipPath><clipPath id="454e699fec"><path d="M 133.019531 45.675781 L 290.289062 22.289062 L 325.921875 261.902344 L 168.652344 285.292969 Z M 133.019531 45.675781 " clip-rule="nonzero"/></clipPath><clipPath id="e9726089c5"><path d="M 290.40625 22.273438 L 133.136719 45.660156 L 168.769531 285.273438 L 326.039062 261.886719 Z M 290.40625 22.273438 " clip-rule="nonzero"/></clipPath><clipPath id="a53cbe7e39"><path d="M 290.40625 22.273438 L 133.136719 45.660156 L 168.769531 285.273438 L 326.039062 261.886719 Z M 290.40625 22.273438 " clip-rule="nonzero"/></clipPath><clipPath id="727e42d4ea"><path d="M 251.039062 134.527344 L 148.140625 149.828125 L 168.046875 283.6875 L 270.945312 268.382812 Z M 251.039062 134.527344 " clip-rule="nonzero"/></clipPath><clipPath id="96a26bd300"><path d="M 251.039062 134.527344 L 148.660156 149.75 L 168.566406 283.609375 L 270.945312 268.382812 Z M 251.039062 134.527344 " clip-rule="nonzero"/></clipPath><clipPath id="657d308194"><path d="M 155 66 L 312 66 L 312 233 L 155 233 Z M 155 66 " clip-rule="nonzero"/></clipPath><clipPath id="b1445defaa"><path d="M 133.019531 45.675781 L 290.289062 22.289062 L 325.921875 261.902344 L 168.652344 285.292969 Z M 133.019531 45.675781 " clip-rule="nonzero"/></clipPath><clipPath id="1421227fc4"><path d="M 290.40625 22.273438 L 133.136719 45.660156 L 168.769531 285.273438 L 326.039062 261.886719 Z M 290.40625 22.273438 " clip-rule="nonzero"/></clipPath><clipPath id="70a4cf06ad"><path d="M 290.40625 22.273438 L 133.136719 45.660156 L 168.769531 285.273438 L 326.039062 261.886719 Z M 290.40625 22.273438 " clip-rule="nonzero"/></clipPath><clipPath id="751f26f1ef"><path d="M 177 52 L 240 52 L 240 70 L 177 70 Z M 177 52 " clip-rule="nonzero"/></clipPath><clipPath id="19a83f0cbd"><path d="M 133.019531 45.675781 L 290.289062 22.289062 L 325.921875 261.902344 L 168.652344 285.292969 Z M 133.019531 45.675781 " clip-rule="nonzero"/></clipPath><clipPath id="9e8e988c69"><path d="M 290.40625 22.273438 L 133.136719 45.660156 L 168.769531 285.273438 L 326.039062 261.886719 Z M 290.40625 22.273438 " clip-rule="nonzero"/></clipPath><clipPath id="e3e48aa824"><path d="M 290.40625 22.273438 L 133.136719 45.660156 L 168.769531 285.273438 L 326.039062 261.886719 Z M 290.40625 22.273438 " clip-rule="nonzero"/></clipPath><clipPath id="37acb6d5bf"><path d="M 161 41 L 207 41 L 207 111 L 161 111 Z M 161 41 " clip-rule="nonzero"/></clipPath><clipPath id="fd66bd2baf"><path d="M 133.019531 45.675781 L 290.289062 22.289062 L 325.921875 261.902344 L 168.652344 285.292969 Z M 133.019531 45.675781 " clip-rule="nonzero"/></clipPath><clipPath id="7af757957d"><path d="M 290.40625 22.273438 L 133.136719 45.660156 L 168.769531 285.273438 L 326.039062 261.886719 Z M 290.40625 22.273438 " clip-rule="nonzero"/></clipPath><clipPath id="c4030d8fed"><path d="M 290.40625 22.273438 L 133.136719 45.660156 L 168.769531 285.273438 L 326.039062 261.886719 Z M 290.40625 22.273438 " clip-rule="nonzero"/></clipPath><clipPath id="8c952cbcc2"><path d="M 200 116 L 288 116 L 288 268 L 200 268 Z M 200 116 " clip-rule="nonzero"/></clipPath><clipPath id="2ca57d9540"><path d="M 133.019531 45.675781 L 290.289062 22.289062 L 325.921875 261.902344 L 168.652344 285.292969 Z M 133.019531 45.675781 " clip-rule="nonzero"/></clipPath><clipPath id="0cba56e7f4"><path d="M 290.40625 22.273438 L 133.136719 45.660156 L 168.769531 285.273438 L 326.039062 261.886719 Z M 290.40625 22.273438 " clip-rule="nonzero"/></clipPath><clipPath id="277cda4741"><path d="M 290.40625 22.273438 L 133.136719 45.660156 L 168.769531 285.273438 L 326.039062 261.886719 Z M 290.40625 22.273438 " clip-rule="nonzero"/></clipPath></defs><g fill="#fffafd" fill-opacity="1"><g transform="translate(87.396679, 278.872422)"><g><path d="M 19.546875 -64.558594 C 19.78125 -66.199219 19.59375 -67.726562 19.195312 -69.199219 C 20.078125 -70.113281 21.054688 -71.503906 20.867188 -73.03125 C 20.988281 -75.09375 22.59375 -76.652344 22.980469 -78.5625 C 25.164062 -80.503906 27.117188 -83.285156 29.832031 -84.917969 C 32.855469 -87.085938 36.140625 -89.101562 39.542969 -90.695312 C 42.582031 -91.964844 45.71875 -93.714844 48.375 -95.558594 C 50.402344 -97.230469 52.714844 -97.855469 55.238281 -98.535156 C 56.285156 -98.820312 57.128906 -99.046875 58.066406 -99.75 C 58.582031 -100.339844 59.210938 -100.511719 60.050781 -100.738281 C 60.683594 -100.90625 61.101562 -101.019531 61.523438 -101.132812 C 63.203125 -101.585938 63.679688 -101.492188 64.113281 -98.226562 C 64.167969 -98.015625 64.015625 -97.75 64.128906 -97.328125 C 65.4375 -94.976562 65.699219 -92.34375 66.589844 -89.878906 C 67.382812 -86.9375 68.332031 -84.261719 68.914062 -81.261719 C 69.765625 -78.109375 71.761719 -75.71875 72.191406 -72.453125 C 73.65625 -70.371094 74.335938 -67.847656 75.019531 -65.328125 C 75.074219 -65.117188 75.1875 -64.695312 75.664062 -64.601562 C 77.339844 -62.574219 77.234375 -59.613281 78.851562 -57.796875 C 80.140625 -53.859375 83.863281 -46.75 85.515625 -43.136719 C 86.839844 -39.890625 91.769531 -33.328125 92.675781 -29.96875 C 93 -29.605469 93.378906 -29.03125 93.703125 -28.667969 C 96.742188 -24.078125 100.570312 -19.925781 104.703125 -16.308594 C 106.320312 -14.488281 108.6875 -14.902344 111.265625 -15.375 C 111.628906 -15.695312 111.992188 -16.019531 111.878906 -16.441406 C 111.917969 -17.128906 111.652344 -17.28125 111.175781 -17.378906 C 110.640625 -17.683594 109.953125 -17.722656 109.269531 -17.765625 C 104.667969 -18.101562 97.121094 -29.363281 95.257812 -32.917969 C 92.0625 -37.242188 92.929688 -39.054688 89.902344 -42.746094 C 89.046875 -43.414062 89.925781 -44.328125 89.335938 -44.847656 C 88.574219 -45.992188 87.59375 -50.460938 87.253906 -51.722656 C 86.816406 -52.507812 85.902344 -53.386719 85.5625 -54.648438 C 84.714844 -57.800781 83.441406 -60.839844 81.386719 -63.441406 C 81.03125 -65.597656 79.375 -66.726562 78.863281 -68.621094 C 78.5625 -70.566406 78.207031 -72.726562 76.589844 -74.542969 C 76.320312 -74.695312 76.304688 -75.59375 76.402344 -76.070312 C 76.441406 -76.757812 76.480469 -77.445312 76.160156 -77.808594 C 75.246094 -78.6875 74.90625 -79.949219 74.621094 -81 C 72.917969 -87.304688 71.429688 -93.664062 69.40625 -100.332031 C 68.835938 -102.429688 68.746094 -104.4375 69.972656 -106.570312 C 70.183594 -106.628906 70.070312 -107.046875 69.957031 -107.46875 C 69.632812 -107.832031 69.40625 -108.671875 68.875 -108.976562 C 67.101562 -110.527344 65.960938 -112.25 66.332031 -115.054688 C 66.621094 -116.484375 65.214844 -118.359375 65.867188 -120.113281 C 66.023438 -120.382812 65.585938 -121.164062 65.472656 -121.585938 C 64.582031 -124.050781 64.644531 -126.320312 65.070312 -128.917969 C 64.902344 -129.546875 65 -130.023438 64.769531 -130.863281 C 63.644531 -137.546875 64.597656 -165.757812 66.195312 -170.695312 C 66.871094 -174.035156 67.28125 -177.527344 66.683594 -181.421875 C 66.496094 -182.949219 66.308594 -184.476562 65.28125 -185.777344 C 64.84375 -186.5625 64.714844 -187.878906 63.648438 -188.492188 C 61.609375 -190.195312 58.972656 -189.9375 56.492188 -189.945312 C 55.765625 -189.296875 54.714844 -189.011719 54.042969 -188.15625 C 52.722656 -185.542969 50.804688 -183.449219 49.214844 -180.992188 C 47.375 -177.789062 45.324219 -174.53125 44.914062 -171.039062 C 44.761719 -170.773438 44.550781 -170.714844 44.550781 -170.714844 C 44.550781 -170.714844 44.015625 -171.023438 44.226562 -171.078125 C 45.074219 -173.789062 42.980469 -175.703125 41.628906 -177.367188 C 40.867188 -178.511719 39.589844 -179.070312 38.371094 -179.417969 C 37.835938 -179.722656 37.414062 -179.609375 36.996094 -179.496094 C 35.945312 -179.214844 35.484375 -178.414062 35.824219 -177.152344 C 36.449219 -174.839844 36.230469 -172.304688 35.902344 -170.1875 C 35.667969 -168.542969 35.589844 -167.171875 35.355469 -165.53125 C 35.179688 -163.679688 35 -161.828125 34.671875 -159.710938 C 33.878906 -156.792969 32.9375 -153.605469 32.203125 -150.476562 C 30.65625 -142.847656 29.050781 -135.425781 26.96875 -128.101562 C 26.332031 -125.449219 25.640625 -123.007812 25.003906 -120.359375 C 24.324219 -117.019531 23.171875 -113.777344 22.972656 -110.34375 C 22.429688 -108.167969 21.625 -106.144531 21.351562 -103.816406 C 19.714844 -98.191406 18.074219 -92.566406 17.183594 -86.6875 C 16.546875 -84.039062 16.175781 -81.230469 13.9375 -79.5 C 12.328125 -77.941406 10.835938 -75.960938 8.636719 -74.914062 C 7.433594 -74.363281 6.4375 -73.871094 5.882812 -72.59375 C 5.269531 -71.527344 3.417969 -71.703125 2.59375 -70.578125 C 2.230469 -70.257812 1.445312 -69.820312 1.082031 -69.496094 C 0.527344 -68.21875 -0.46875 -67.722656 -1.40625 -67.019531 C -2.761719 -66.203125 -4.0625 -65.175781 -5.039062 -63.785156 C -12.003906 -57.847656 -17.882812 -50.402344 -19.453125 -41.1875 C -19.6875 -39.546875 -19.386719 -37.597656 -18.359375 -36.296875 C -18.246094 -35.875 -17.238281 -35.472656 -16.761719 -35.375 C -16.28125 -35.28125 -15.878906 -36.289062 -16.050781 -36.921875 L -16.671875 -39.230469 C -16.898438 -40.070312 -16.648438 -40.816406 -16.191406 -41.617188 C -14.695312 -43.597656 -12.878906 -45.214844 -12.660156 -47.753906 C -12.507812 -48.019531 -12.355469 -48.285156 -12.144531 -48.34375 C -8.257812 -52.324219 -5.171875 -56.761719 -0.90625 -60.167969 C 1.023438 -61.363281 1.984375 -63.652344 3.972656 -64.640625 C 4.390625 -64.753906 4.546875 -65.019531 4.488281 -65.230469 C 4.664062 -67.082031 6.078125 -67.6875 7.550781 -68.085938 C 8.179688 -68.253906 8.90625 -68.902344 9.425781 -69.492188 C 10.152344 -70.140625 11.300781 -70.898438 12.347656 -71.183594 C 12.769531 -71.296875 13.191406 -71.410156 13.457031 -71.257812 C 12.683594 -67.441406 11.546875 -63.300781 10.351562 -59.375 C 9.773438 -56.511719 9.34375 -53.917969 8.289062 -51.152344 C 6.441406 -45.46875 4.914062 -39.421875 3.601562 -33.433594 C 3.019531 -30.570312 3.183594 -27.457031 1.652344 -24.789062 C 1.132812 -24.199219 0.882812 -23.457031 1.207031 -23.09375 C 1.699219 -22.097656 1.296875 -21.089844 0.835938 -20.289062 C -0.800781 -14.660156 -2.226562 -9.089844 -1.746094 -3.136719 C -2.328125 -0.273438 -0.386719 1.90625 0.925781 4.257812 C 1.570312 4.984375 2.734375 5.121094 3.574219 4.894531 C 4.207031 4.726562 4.78125 4.347656 5.085938 3.8125 C 5.449219 3.488281 5.699219 2.746094 5.949219 2 C 6.71875 0.667969 6.148438 -1.433594 6.917969 -2.769531 C 8.296875 -5.167969 8.628906 -7.289062 8.214844 -9.65625 C 8.40625 -10.609375 8.277344 -11.925781 8.261719 -12.824219 C 8.1875 -13.929688 8.269531 -15.304688 9.148438 -16.21875 C 10.660156 -17.304688 10.835938 -19.152344 11.28125 -20.851562 C 12.085938 -22.871094 11.519531 -24.972656 12.441406 -26.574219 C 12.441406 -26.574219 12.117188 -26.9375 11.851562 -27.09375 C 10.953125 -27.074219 11.203125 -27.820312 11.300781 -28.296875 C 11.167969 -29.613281 12.390625 -29.265625 12.90625 -29.855469 C 13.277344 -32.660156 13.914062 -35.3125 14.398438 -37.699219 C 14.613281 -40.234375 14.886719 -42.5625 15.636719 -44.796875 C 16.332031 -47.238281 17.027344 -49.679688 17.03125 -52.160156 C 17.226562 -53.113281 17.210938 -54.011719 17.402344 -54.964844 C 18.613281 -57.996094 18.871094 -61.222656 19.546875 -64.558594 Z M 59.703125 -119.578125 C 61.046875 -115.433594 60.539062 -111.464844 62.148438 -107.164062 C 48.105469 -101.570312 38.070312 -96.15625 25.660156 -87.847656 C 25.433594 -88.691406 25.167969 -88.84375 25.320312 -89.109375 C 26.09375 -92.925781 26.390625 -96.835938 27.699219 -100.347656 C 28.0625 -100.671875 28.0625 -100.671875 28.003906 -100.878906 C 27.648438 -103.039062 28.246094 -105.003906 29.109375 -106.8125 C 29.914062 -108.835938 30.09375 -110.6875 31.109375 -112.761719 C 31.472656 -113.085938 31.570312 -113.5625 31.457031 -113.984375 C 31.554688 -114.460938 33.355469 -125.316406 33.355469 -125.316406 C 34.800781 -129.988281 36.457031 -134.71875 37.84375 -139.601562 C 38.441406 -141.566406 38.980469 -143.742188 39.253906 -146.070312 C 39.71875 -149.351562 40.929688 -152.382812 42.617188 -155.316406 C 43.789062 -157.660156 44.847656 -160.425781 45.902344 -163.191406 C 46.613281 -164.734375 47.210938 -166.699219 48.875 -168.050781 C 49.296875 -168.164062 49.390625 -168.640625 49.546875 -168.910156 L 52.460938 -173.976562 C 53.058594 -175.941406 54.722656 -177.292969 55.109375 -179.199219 C 55.550781 -180.898438 57.5 -181.199219 58.535156 -182.378906 C 58.746094 -182.4375 59.125 -181.863281 59.390625 -181.707031 L 59.5625 -181.078125 C 59.613281 -178.386719 59.660156 -175.695312 59.234375 -173.101562 C 56.914062 -161.65625 57.71875 -141.132812 58.71875 -129.90625 C 58.90625 -128.378906 58.882812 -126.792969 58.914062 -125 C 59.3125 -123.53125 59.765625 -121.847656 59.53125 -120.207031 C 59.378906 -119.941406 59.433594 -119.730469 59.703125 -119.578125 Z M 63.273438 -120.542969 L 63.160156 -120.960938 L 63.582031 -121.074219 Z M 65.121094 -112.023438 L 64.757812 -111.699219 L 64.855469 -112.175781 Z M 65.121094 -112.023438 "/></g></g></g><g clip-path="url(#c034069a28)"><g clip-path="url(#454e699fec)"><g clip-path="url(#e9726089c5)"><g clip-path="url(#a53cbe7e39)"><g clip-path="url(#727e42d4ea)"><g clip-path="url(#96a26bd300)"><path fill="#fffafd" d="M 154.929688 175.597656 C 155.636719 179.144531 157.183594 182.523438 159.175781 185.617188 C 163.207031 191.835938 168.808594 196.976562 174.625 201.742188 C 180.484375 206.523438 186.542969 211.0625 192.847656 215.214844 C 194.601562 216.367188 196.375 217.488281 198.167969 218.582031 C 198.195312 216.5625 198.339844 214.546875 198.5625 212.546875 C 199.011719 208.71875 199.777344 204.972656 200.519531 201.253906 C 201.261719 197.527344 202.011719 193.816406 202.621094 190.097656 C 203.234375 186.375 203.71875 182.640625 203.925781 178.902344 C 204.128906 175.171875 204.039062 171.433594 203.414062 167.808594 C 202.78125 164.195312 201.570312 160.6875 199.488281 157.75 C 197.429688 154.808594 194.53125 152.523438 191.234375 151.003906 C 189.585938 150.238281 187.851562 149.644531 186.070312 149.191406 C 184.296875 148.746094 182.449219 148.382812 180.667969 148.242188 C 177.066406 147.957031 173.394531 148.542969 170.007812 149.839844 C 166.617188 151.136719 163.503906 153.164062 160.964844 155.738281 C 159.699219 157.035156 158.582031 158.464844 157.644531 160.003906 C 156.71875 161.550781 155.980469 163.203125 155.457031 164.921875 C 154.410156 168.367188 154.207031 172.058594 154.929688 175.597656 Z M 153.15625 164.222656 C 153.742188 162.308594 154.566406 160.472656 155.597656 158.765625 C 156.636719 157.0625 157.875 155.488281 159.265625 154.070312 C 162.058594 151.242188 165.460938 149.042969 169.167969 147.636719 C 172.867188 146.226562 176.882812 145.589844 180.851562 145.914062 C 182.855469 146.078125 184.75 146.460938 186.652344 146.9375 C 188.546875 147.425781 190.417969 148.066406 192.214844 148.902344 C 195.804688 150.566406 199.074219 153.136719 201.367188 156.433594 C 203.683594 159.71875 204.988281 163.574219 205.65625 167.421875 C 206.300781 171.289062 206.335938 175.1875 206.101562 179.03125 C 205.851562 182.878906 205.320312 186.679688 204.664062 190.441406 C 204.007812 194.207031 203.222656 197.933594 202.445312 201.644531 C 201.671875 205.363281 200.882812 209.0625 200.410156 212.769531 C 200.128906 215.058594 199.957031 217.363281 199.953125 219.660156 C 204.039062 222.085938 208.226562 224.335938 212.535156 226.332031 C 219.367188 229.5 226.503906 232.054688 233.867188 233.582031 C 241.222656 235.113281 248.820312 235.582031 256.273438 234.59375 C 259.117188 234.214844 261.949219 233.707031 264.746094 233.058594 L 265.394531 234.199219 C 262.445312 234.929688 259.457031 235.503906 256.457031 235.9375 C 248.847656 237.03125 241.070312 236.632812 233.550781 235.15625 C 226.019531 233.679688 218.734375 231.160156 211.761719 228.019531 C 207.75 226.207031 203.835938 224.191406 200.015625 222.015625 C 200.046875 222.652344 200.089844 223.292969 200.152344 223.929688 C 200.527344 227.613281 201.4375 231.25 203.132812 234.523438 C 204.8125 237.800781 207.265625 240.648438 210.164062 242.96875 C 213.066406 245.296875 216.375 247.121094 219.785156 248.710938 C 223.203125 250.296875 226.746094 251.640625 230.296875 252.972656 C 233.847656 254.3125 237.414062 255.636719 240.917969 257.140625 C 244.414062 258.640625 247.855469 260.328125 251.0625 262.40625 C 254.261719 264.476562 257.21875 266.964844 259.625 269.925781 L 259.449219 270.070312 C 256.992188 267.191406 254.011719 264.796875 250.792969 262.824219 C 247.574219 260.84375 244.132812 259.253906 240.625 257.84375 C 233.597656 255.027344 226.285156 252.921875 219.28125 249.820312 C 215.792969 248.261719 212.367188 246.449219 209.296875 244.070312 C 206.234375 241.703125 203.566406 238.722656 201.726562 235.261719 C 199.863281 231.808594 198.835938 227.964844 198.417969 224.109375 C 198.300781 223.0625 198.230469 222.011719 198.191406 220.960938 C 196 219.671875 193.839844 218.335938 191.710938 216.949219 C 185.3125 212.78125 179.175781 208.230469 173.246094 203.441406 C 167.335938 198.636719 161.542969 193.417969 157.242188 186.871094 C 155.117188 183.605469 153.414062 179.972656 152.613281 176.0625 C 151.800781 172.164062 151.980469 168.039062 153.15625 164.222656 " fill-opacity="1" fill-rule="nonzero"/></g></g></g></g></g></g><g clip-path="url(#657d308194)"><g clip-path="url(#b1445defaa)"><g clip-path="url(#1421227fc4)"><g clip-path="url(#70a4cf06ad)"><path fill="#fffafd" d="M 271.464844 232.429688 L 270.910156 231.347656 C 273.316406 230.570312 275.683594 229.683594 277.996094 228.644531 C 284.859375 225.574219 291.203125 221.261719 296.347656 215.746094 C 301.507812 210.257812 305.382812 203.597656 307.785156 196.453125 C 312.570312 182.148438 311.683594 166.007812 305.644531 152.238281 C 304.007812 148.859375 301.78125 145.78125 299.140625 143.113281 C 296.511719 140.429688 293.492188 138.140625 290.285156 136.167969 C 283.863281 132.222656 276.78125 129.441406 269.574219 127.199219 C 262.355469 124.964844 254.964844 123.289062 247.535156 121.851562 C 240.101562 120.40625 232.621094 119.160156 225.125 118 L 213.867188 116.269531 C 210.117188 115.671875 206.363281 115.054688 202.617188 114.40625 C 195.125 113.085938 187.632812 111.65625 180.265625 109.574219 C 176.585938 108.527344 172.933594 107.3125 169.421875 105.710938 C 165.925781 104.105469 162.488281 102.101562 159.78125 99.179688 C 158.441406 97.71875 157.316406 96.019531 156.625 94.128906 C 155.90625 92.25 155.660156 90.21875 155.746094 88.246094 C 155.855469 86.265625 156.28125 84.335938 156.914062 82.5 C 157.5625 80.671875 158.265625 78.878906 159.191406 77.167969 C 160.992188 73.757812 163.542969 70.605469 166.898438 68.539062 C 167.921875 67.894531 169.007812 67.378906 170.121094 66.949219 L 170.703125 67.964844 C 169.59375 68.386719 168.527344 68.902344 167.527344 69.542969 C 164.402344 71.5 162.023438 74.472656 160.316406 77.761719 C 158.664062 81.074219 157.285156 84.667969 157.160156 88.304688 C 157.113281 90.117188 157.367188 91.929688 158.035156 93.589844 C 158.679688 95.261719 159.710938 96.769531 160.957031 98.085938 C 163.480469 100.710938 166.75 102.597656 170.136719 104.128906 C 173.542969 105.65625 177.128906 106.820312 180.753906 107.832031 C 188.023438 109.828125 195.480469 111.207031 202.949219 112.464844 L 225.433594 116.046875 C 240.421875 118.460938 255.480469 121.101562 270.011719 125.84375 C 277.246094 128.234375 284.371094 131.175781 290.828125 135.308594 C 294.046875 137.378906 297.085938 139.753906 299.761719 142.507812 C 302.441406 145.253906 304.707031 148.421875 306.355469 151.894531 C 307.1875 153.628906 307.828125 155.441406 308.410156 157.257812 C 308.984375 159.074219 309.484375 160.917969 309.90625 162.78125 C 310.757812 166.503906 311.25 170.300781 311.460938 174.109375 C 311.875 181.726562 310.929688 189.441406 308.519531 196.699219 C 307.308594 200.324219 305.746094 203.835938 303.808594 207.136719 C 301.867188 210.433594 299.589844 213.535156 297 216.351562 C 291.828125 222.011719 285.414062 226.472656 278.460938 229.671875 C 276.183594 230.726562 273.84375 231.632812 271.464844 232.429688 " fill-opacity="1" fill-rule="nonzero"/></g></g></g></g><g clip-path="url(#751f26f1ef)"><g clip-path="url(#19a83f0cbd)"><g clip-path="url(#9e8e988c69)"><g clip-path="url(#e3e48aa824)"><path fill="#fffafd" d="M 232.996094 61.6875 C 230.265625 64.363281 226.929688 66.441406 223.304688 67.691406 C 219.675781 68.960938 215.824219 69.441406 212.003906 69.480469 C 208.179688 69.519531 204.375 69.136719 200.605469 68.640625 C 196.828125 68.140625 193.082031 67.519531 189.328125 67.046875 C 185.578125 66.574219 181.804688 66.238281 178.066406 66.460938 C 177.953125 66.46875 177.839844 66.484375 177.726562 66.492188 C 177.523438 66.140625 177.324219 65.785156 177.121094 65.433594 C 177.417969 65.410156 177.714844 65.382812 178.003906 65.367188 C 178.359375 65.347656 178.710938 65.339844 179.0625 65.332031 L 179.128906 65.328125 C 179.515625 65.320312 179.90625 65.316406 180.304688 65.320312 C 180.320312 65.320312 180.335938 65.320312 180.351562 65.320312 C 180.757812 65.324219 181.167969 65.328125 181.597656 65.34375 L 182.332031 65.367188 C 184.726562 65.480469 187.097656 65.757812 189.457031 66.082031 C 193.226562 66.605469 196.96875 67.269531 200.71875 67.8125 C 204.464844 68.351562 208.230469 68.773438 212.003906 68.78125 C 215.765625 68.789062 219.554688 68.359375 223.121094 67.160156 C 226.6875 65.972656 229.976562 63.984375 232.714844 61.394531 C 234.085938 60.097656 235.324219 58.664062 236.453125 57.152344 C 237.585938 55.636719 238.566406 54.015625 239.492188 52.363281 L 239.695312 52.46875 C 238.785156 54.140625 237.828125 55.792969 236.710938 57.335938 C 235.59375 58.882812 234.363281 60.351562 232.996094 61.6875 " fill-opacity="1" fill-rule="nonzero"/></g></g></g></g><g clip-path="url(#37acb6d5bf)"><g clip-path="url(#fd66bd2baf)"><g clip-path="url(#7af757957d)"><g clip-path="url(#c4030d8fed)"><path fill="#fffafd" d="M 177.078125 59.304688 C 170.851562 47.820312 168.988281 46.828125 167.722656 47.511719 C 166.460938 48.199219 166.273438 50.300781 172.5 61.785156 C 178.726562 73.269531 189.007812 89.789062 190.269531 89.105469 C 191.222656 88.589844 186.820312 78.53125 181.933594 68.691406 C 182.851562 68.71875 183.753906 68.769531 184.640625 68.835938 L 206.199219 110.6875 L 203.308594 110.226562 C 201.152344 109.863281 198.949219 109.476562 196.726562 109.070312 L 162.640625 49.234375 C 161.175781 46.660156 162.109375 43.378906 164.71875 41.964844 C 167.324219 40.554688 170.585938 41.558594 171.941406 44.195312 L 181.671875 63.078125 C 180.8125 63.046875 179.945312 63.042969 179.074219 63.0625 C 178.394531 61.761719 177.722656 60.496094 177.078125 59.304688 " fill-opacity="1" fill-rule="nonzero"/></g></g></g></g><g clip-path="url(#8c952cbcc2)"><g clip-path="url(#2ca57d9540)"><g clip-path="url(#0cba56e7f4)"><g clip-path="url(#277cda4741)"><path fill="#fffafd" d="M 202.222656 116.636719 C 204.632812 117.054688 207.140625 117.476562 209.929688 117.929688 L 287.078125 267.679688 L 200.902344 116.402344 C 201.34375 116.480469 201.785156 116.558594 202.222656 116.636719 " fill-opacity="1" fill-rule="nonzero"/></g></g></g></g></svg>